<?xml version="1.0" ?><svg height="512" id="svg4156" version="1.1" width="512" xmlns="http://www.w3.org/2000/svg" xmlns:cc="http://creativecommons.org/ns#" xmlns:dc="http://purl.org/dc/elements/1.1/" xmlns:inkscape="http://www.inkscape.org/namespaces/inkscape" xmlns:rdf="http://www.w3.org/1999/02/22-rdf-syntax-ns#" xmlns:sodipodi="http://sodipodi.sourceforge.net/DTD/sodipodi-0.dtd" xmlns:svg="http://www.w3.org/2000/svg"><defs id="defs4158"/><g id="layer1" transform="translate(0,448)"><g id="g14466" transform="translate(4716.3167,2166.7232)"><path d="m -4464.3437,-2594.6699 c 60.4727,0 120.9363,23.0069 166.9394,69.0101 a 23.497316,23.497316 0 1 1 -33.225,33.2249 c -74.049,-74.0491 -193.4087,-74.0491 -267.4578,0 -74.0492,74.0492 -74.0492,193.3796 0,267.4288 74.0491,74.0492 193.4088,74.0492 267.4578,0 a 23.497316,23.497316 0 1 1 33.225,33.2249 c -92.0063,92.0063 -241.9014,92.0063 -333.9077,0 -92.0063,-92.0063 -92.0063,-241.8723 0,-333.8786 46.0031,-46.0032 106.4957,-69.0101 166.9683,-69.0101 z" id="path14394-2" style="font-size:medium;font-style:normal;font-variant:normal;font-weight:normal;font-stretch:normal;text-indent:0;text-align:start;text-decoration:none;line-height:normal;letter-spacing:normal;word-spacing:normal;text-transform:none;direction:ltr;block-progression:tb;writing-mode:lr-tb;text-anchor:start;baseline-shift:baseline;color:#000000;fill:#4d4d4d;fill-opacity:1;stroke:none;stroke-width:50.47272491;marker:none;visibility:visible;display:inline;overflow:visible;enable-background:accumulate;font-family:Sans;-inkscape-font-specification:Sans"/><g id="g14462" transform="translate(-52.08481,-380.44684)"><rect height="48" id="rect10027-4" rx="16" ry="16" style="fill:#4d4d4d;fill-opacity:1;fill-rule:nonzero;stroke:none" width="189.7672" x="-4436.3472" y="-2002.2764"/><path d="m -4274.5749,-2042.7745 a 7.1075658,7.1075658 0 0 0 -7.274,7.1069 l 0,114.7923 a 7.1075658,7.1075658 0 0 0 10.633,6.1631 l 99.441,-57.4101 a 7.1075658,7.1075658 0 0 0 0,-12.2982 l -99.441,-57.4101 a 7.1075658,7.1075658 0 0 0 -3.359,-0.9439 z" id="path12145-9" style="font-size:medium;font-style:normal;font-variant:normal;font-weight:normal;font-stretch:normal;text-indent:0;text-align:start;text-decoration:none;line-height:normal;letter-spacing:normal;word-spacing:normal;text-transform:none;direction:ltr;block-progression:tb;writing-mode:lr-tb;text-anchor:start;baseline-shift:baseline;color:#000000;fill:#4d4d4d;fill-opacity:1;fill-rule:nonzero;stroke:none;stroke-width:49.90476608;marker:none;visibility:visible;display:inline;overflow:visible;enable-background:accumulate;font-family:Sans;-inkscape-font-specification:Sans"/></g></g></g></svg>